<svg xmlns="http://www.w3.org/2000/svg" width="1700" height="1100" viewBox="0 0 1700 1100" font-family="Microsoft YaHei, PingFang SC, sans-serif">
<rect width="1700" height="1100" fill="#FFFFFF"/>
<line x1="850.0" y1="560.0" x2="850.0" y2="220.0" stroke="#EF5350" stroke-width="3"/>
<line x1="850.0" y1="220.0" x2="800.0" y2="116.0" stroke="#EF5350" stroke-width="2" opacity="0.55"/>
<line x1="850.0" y1="220.0" x2="850.0" y2="116.0" stroke="#EF5350" stroke-width="2" opacity="0.55"/>
<line x1="850.0" y1="220.0" x2="900.0" y2="116.0" stroke="#EF5350" stroke-width="2" opacity="0.55"/>
<line x1="850.0" y1="560.0" x2="1115.8" y2="348.0" stroke="#FF9800" stroke-width="3"/>
<line x1="1115.8" y1="348.0" x2="1181.5" y2="263.6" stroke="#FF9800" stroke-width="2" opacity="0.55"/>
<line x1="1115.8" y1="348.0" x2="1212.7" y2="302.7" stroke="#FF9800" stroke-width="2" opacity="0.55"/>
<line x1="850.0" y1="560.0" x2="1181.5" y2="635.7" stroke="#E6A817" stroke-width="3"/>
<line x1="1181.5" y1="635.7" x2="1288.4" y2="634.4" stroke="#E6A817" stroke-width="2" opacity="0.55"/>
<line x1="1181.5" y1="635.7" x2="1277.3" y2="683.2" stroke="#E6A817" stroke-width="2" opacity="0.55"/>
<line x1="850.0" y1="560.0" x2="997.5" y2="866.3" stroke="#66BB6A" stroke-width="3"/>
<line x1="997.5" y1="866.3" x2="1065.2" y2="949.2" stroke="#66BB6A" stroke-width="2" opacity="0.55"/>
<line x1="997.5" y1="866.3" x2="1020.1" y2="970.9" stroke="#66BB6A" stroke-width="2" opacity="0.55"/>
<line x1="850.0" y1="560.0" x2="702.5" y2="866.3" stroke="#26A69A" stroke-width="3"/>
<line x1="702.5" y1="866.3" x2="679.9" y2="970.9" stroke="#26A69A" stroke-width="2" opacity="0.55"/>
<line x1="702.5" y1="866.3" x2="634.8" y2="949.2" stroke="#26A69A" stroke-width="2" opacity="0.55"/>
<line x1="850.0" y1="560.0" x2="518.5" y2="635.7" stroke="#42A5F5" stroke-width="3"/>
<line x1="518.5" y1="635.7" x2="422.7" y2="683.2" stroke="#42A5F5" stroke-width="2" opacity="0.55"/>
<line x1="518.5" y1="635.7" x2="411.6" y2="634.4" stroke="#42A5F5" stroke-width="2" opacity="0.55"/>
<line x1="850.0" y1="560.0" x2="584.2" y2="348.0" stroke="#AB47BC" stroke-width="3"/>
<line x1="584.2" y1="348.0" x2="487.3" y2="302.7" stroke="#AB47BC" stroke-width="2" opacity="0.55"/>
<line x1="584.2" y1="348.0" x2="518.5" y2="263.6" stroke="#AB47BC" stroke-width="2" opacity="0.55"/>
<rect x="668.0" y="523.0" width="364.0" height="74.0" rx="22" fill="#1F2937"/>
<text x="850" y="560" fill="#FFFFFF" font-size="30" font-weight="bold" text-anchor="middle" dominant-baseline="central">徐霞客社区系统框架图</text>
<rect x="783.0" y="194.0" width="134.0" height="52.0" rx="15" fill="#EF5350"/>
<text x="850.0" y="220.0" fill="#FFFFFF" font-size="22" font-weight="bold" text-anchor="middle" dominant-baseline="central">三种角色</text>
<rect x="725.8" y="95.0" width="148.4" height="42.0" rx="12" fill="#EF5350" fill-opacity="0.12" stroke="#EF5350" stroke-opacity="0.5" stroke-width="1.5"/>
<text x="800.0" y="116.0" fill="#374151" font-size="16" text-anchor="middle" dominant-baseline="central">普通用户 USER</text>
<rect x="760.6" y="95.0" width="178.8" height="42.0" rx="12" fill="#EF5350" fill-opacity="0.12" stroke="#EF5350" stroke-opacity="0.5" stroke-width="1.5"/>
<text x="850.0" y="116.0" fill="#374151" font-size="16" text-anchor="middle" dominant-baseline="central">审核员 MODERATOR</text>
<rect x="829.2" y="95.0" width="141.7" height="42.0" rx="12" fill="#EF5350" fill-opacity="0.12" stroke="#EF5350" stroke-opacity="0.5" stroke-width="1.5"/>
<text x="900.0" y="116.0" fill="#374151" font-size="16" text-anchor="middle" dominant-baseline="central">管理员 ADMIN</text>
<rect x="1049.8" y="322.0" width="132.0" height="52.0" rx="15" fill="#FF9800"/>
<text x="1115.8227040391303" y="348.0134673680306" fill="#FFFFFF" font-size="22" font-weight="bold" text-anchor="middle" dominant-baseline="central">① 采集</text>
<rect x="1116.6" y="242.6" width="129.8" height="42.0" rx="12" fill="#FF9800" fill-opacity="0.12" stroke="#FF9800" stroke-opacity="0.5" stroke-width="1.5"/>
<text x="1181.545933169337" y="263.6247409130215" fill="#374151" font-size="16" text-anchor="middle" dominant-baseline="central">闪拍App拍摄</text>
<rect x="1136.4" y="281.7" width="152.6" height="42.0" rx="12" fill="#FF9800" fill-opacity="0.12" stroke="#FF9800" stroke-opacity="0.5" stroke-width="1.5"/>
<text x="1212.7204232622737" y="302.71631503642305" fill="#374151" font-size="16" text-anchor="middle" dominant-baseline="central">照片/视频/语音</text>
<rect x="1115.5" y="609.7" width="132.0" height="52.0" rx="15" fill="#E6A817"/>
<text x="1181.47549014182" y="635.6571175451469" fill="#FFFFFF" font-size="22" font-weight="bold" text-anchor="middle" dominant-baseline="central">② 素材</text>
<rect x="1203.7" y="613.4" width="169.5" height="42.0" rx="12" fill="#E6A817" fill-opacity="0.12" stroke="#E6A817" stroke-opacity="0.5" stroke-width="1.5"/>
<text x="1288.4310163576374" y="634.426096872058" fill="#374151" font-size="16" text-anchor="middle" dominant-baseline="central">SNAPSHOT 素材库</text>
<rect x="1202.3" y="662.2" width="150.0" height="42.0" rx="12" fill="#E6A817" fill-opacity="0.12" stroke="#E6A817" stroke-opacity="0.5" stroke-width="1.5"/>
<text x="1277.3049696598218" y="683.1724924811492" fill="#374151" font-size="16" text-anchor="middle" dominant-baseline="central">相册式聚合浏览</text>
<rect x="922.4" y="840.3" width="150.3" height="52.0" rx="15" fill="#66BB6A"/>
<text x="997.5204712999698" y="866.3294150868225" fill="#FFFFFF" font-size="22" font-weight="bold" text-anchor="middle" dominant-baseline="central">③ AI生成</text>
<rect x="975.0" y="928.2" width="180.4" height="42.0" rx="12" fill="#66BB6A" fill-opacity="0.12" stroke="#66BB6A" stroke-opacity="0.5" stroke-width="1.5"/>
<text x="1065.1686018657563" y="949.183083870735" fill="#374151" font-size="16" text-anchor="middle" dominant-baseline="central">AI日记 · 5种风格</text>
<rect x="918.6" y="949.9" width="203.1" height="42.0" rx="12" fill="#66BB6A" fill-opacity="0.12" stroke="#66BB6A" stroke-opacity="0.5" stroke-width="1.5"/>
<text x="1020.1201584706353" y="970.877270826613" fill="#374151" font-size="16" text-anchor="middle" dominant-baseline="central">AI游记 · 结构化章节</text>
<rect x="636.5" y="840.3" width="132.0" height="52.0" rx="15" fill="#26A69A"/>
<text x="702.4795287000302" y="866.3294150868226" fill="#FFFFFF" font-size="22" font-weight="bold" text-anchor="middle" dominant-baseline="central">④ 发布</text>
<rect x="612.9" y="949.9" width="134.0" height="42.0" rx="12" fill="#26A69A" fill-opacity="0.12" stroke="#26A69A" stroke-opacity="0.5" stroke-width="1.5"/>
<text x="679.8798415293646" y="970.8772708266132" fill="#374151" font-size="16" text-anchor="middle" dominant-baseline="central">三级内容链条</text>
<rect x="558.6" y="928.2" width="152.6" height="42.0" rx="12" fill="#26A69A" fill-opacity="0.12" stroke="#26A69A" stroke-opacity="0.5" stroke-width="1.5"/>
<text x="634.8313981342436" y="949.1830838707352" fill="#374151" font-size="16" text-anchor="middle" dominant-baseline="central">草稿/私密/公开</text>
<rect x="452.5" y="609.7" width="132.0" height="52.0" rx="15" fill="#42A5F5"/>
<text x="518.52450985818" y="635.6571175451468" fill="#FFFFFF" font-size="22" font-weight="bold" text-anchor="middle" dominant-baseline="central">⑤ 互动</text>
<rect x="315.7" y="662.2" width="214.0" height="42.0" rx="12" fill="#42A5F5" fill-opacity="0.12" stroke="#42A5F5" stroke-opacity="0.5" stroke-width="1.5"/>
<text x="422.6950303401781" y="683.1724924811491" fill="#374151" font-size="16" text-anchor="middle" dominant-baseline="central">社群·消息·推荐·通知</text>
<rect x="318.3" y="613.4" width="186.5" height="42.0" rx="12" fill="#42A5F5" fill-opacity="0.12" stroke="#42A5F5" stroke-opacity="0.5" stroke-width="1.5"/>
<text x="411.5689836423624" y="634.4260968720579" fill="#374151" font-size="16" text-anchor="middle" dominant-baseline="central">USER + MODERATOR</text>
<rect x="518.2" y="322.0" width="132.0" height="52.0" rx="15" fill="#AB47BC"/>
<text x="584.1772959608699" y="348.01346736803066" fill="#FFFFFF" font-size="22" font-weight="bold" text-anchor="middle" dominant-baseline="central">⑥ 治理</text>
<rect x="396.3" y="281.7" width="182.0" height="42.0" rx="12" fill="#AB47BC" fill-opacity="0.12" stroke="#AB47BC" stroke-opacity="0.5" stroke-width="1.5"/>
<text x="487.27957673772636" y="302.71631503642317" fill="#374151" font-size="16" text-anchor="middle" dominant-baseline="central">审核·举报·软删除</text>
<rect x="406.7" y="242.6" width="223.6" height="42.0" rx="12" fill="#AB47BC" fill-opacity="0.12" stroke="#AB47BC" stroke-opacity="0.5" stroke-width="1.5"/>
<text x="518.454066830663" y="263.62474091302164" fill="#374151" font-size="16" text-anchor="middle" dominant-baseline="central">USER+MODERATOR+ADMIN</text>
</svg>