<svg xmlns="http://www.w3.org/2000/svg" width="1900" height="1250" viewBox="0 0 1900 1250" font-family="Microsoft YaHei, PingFang SC, sans-serif">
<rect width="1900" height="1250" fill="#FFFFFF"/>
<line x1="950.0" y1="625.0" x2="950.0" y2="325.0" stroke="#EF5350" stroke-width="3"/>
<line x1="950.0" y1="325.0" x2="775.8" y2="175.0" stroke="#EF5350" stroke-width="2" opacity="0.55"/>
<line x1="950.0" y1="325.0" x2="953.4" y2="175.0" stroke="#EF5350" stroke-width="2" opacity="0.55"/>
<line x1="950.0" y1="325.0" x2="1127.6" y2="175.0" stroke="#EF5350" stroke-width="2" opacity="0.55"/>
<line x1="950.0" y1="625.0" x2="1184.5" y2="438.0" stroke="#FF9800" stroke-width="3"/>
<line x1="1184.5" y1="438.0" x2="1245.7" y2="274.1" stroke="#FF9800" stroke-width="2" opacity="0.55"/>
<line x1="1184.5" y1="438.0" x2="1346.7" y2="400.7" stroke="#FF9800" stroke-width="2" opacity="0.55"/>
<line x1="950.0" y1="625.0" x2="1242.5" y2="691.8" stroke="#E6A817" stroke-width="3"/>
<line x1="1242.5" y1="691.8" x2="1403.4" y2="660.8" stroke="#E6A817" stroke-width="2" opacity="0.55"/>
<line x1="1242.5" y1="691.8" x2="1369.3" y2="810.1" stroke="#E6A817" stroke-width="2" opacity="0.55"/>
<line x1="950.0" y1="625.0" x2="1080.2" y2="895.3" stroke="#66BB6A" stroke-width="3"/>
<line x1="1080.2" y1="895.3" x2="1220.3" y2="994.3" stroke="#66BB6A" stroke-width="2" opacity="0.55"/>
<line x1="1080.2" y1="895.3" x2="1066.0" y2="1068.6" stroke="#66BB6A" stroke-width="2" opacity="0.55"/>
<line x1="950.0" y1="625.0" x2="819.8" y2="895.3" stroke="#26A69A" stroke-width="3"/>
<line x1="819.8" y1="895.3" x2="835.8" y2="1069.5" stroke="#26A69A" stroke-width="2" opacity="0.55"/>
<line x1="819.8" y1="895.3" x2="688.1" y2="998.3" stroke="#26A69A" stroke-width="2" opacity="0.55"/>
<line x1="950.0" y1="625.0" x2="657.5" y2="691.8" stroke="#42A5F5" stroke-width="3"/>
<line x1="657.5" y1="691.8" x2="529.1" y2="803.1" stroke="#42A5F5" stroke-width="2" opacity="0.55"/>
<line x1="657.5" y1="691.8" x2="491.3" y2="637.4" stroke="#42A5F5" stroke-width="2" opacity="0.55"/>
<line x1="950.0" y1="625.0" x2="715.5" y2="438.0" stroke="#AB47BC" stroke-width="3"/>
<line x1="715.5" y1="438.0" x2="557.0" y2="396.0" stroke="#AB47BC" stroke-width="2" opacity="0.55"/>
<line x1="715.5" y1="438.0" x2="654.3" y2="274.1" stroke="#AB47BC" stroke-width="2" opacity="0.55"/>
<rect x="768.0" y="588.0" width="364.0" height="74.0" rx="22" fill="#1F2937"/>
<text x="950" y="625" fill="#FFFFFF" font-size="30" font-weight="bold" text-anchor="middle" dominant-baseline="central">徐霞客社区系统框架图</text>
<rect x="883.0" y="299.0" width="134.0" height="52.0" rx="15" fill="#EF5350"/>
<text x="950.0" y="325.0" fill="#FFFFFF" font-size="22" font-weight="bold" text-anchor="middle" dominant-baseline="central">三种角色</text>
<rect x="701.6" y="154.0" width="148.4" height="42.0" rx="12" fill="#EF5350" fill-opacity="0.12" stroke="#EF5350" stroke-opacity="0.5" stroke-width="1.5"/>
<text x="775.76" y="175.0" fill="#374151" font-size="16" text-anchor="middle" dominant-baseline="central">普通用户 USER</text>
<rect x="864.0" y="154.0" width="178.8" height="42.0" rx="12" fill="#EF5350" fill-opacity="0.12" stroke="#EF5350" stroke-opacity="0.5" stroke-width="1.5"/>
<text x="953.36" y="175.0" fill="#374151" font-size="16" text-anchor="middle" dominant-baseline="central">审核员 MODERATOR</text>
<rect x="1056.8" y="154.0" width="141.7" height="42.0" rx="12" fill="#EF5350" fill-opacity="0.12" stroke="#EF5350" stroke-opacity="0.5" stroke-width="1.5"/>
<text x="1127.6" y="175.0" fill="#374151" font-size="16" text-anchor="middle" dominant-baseline="central">管理员 ADMIN</text>
<rect x="1118.5" y="412.0" width="132.0" height="52.0" rx="15" fill="#FF9800"/>
<text x="1184.549444740409" y="437.95305944238" fill="#FFFFFF" font-size="22" font-weight="bold" text-anchor="middle" dominant-baseline="central">① 采集</text>
<rect x="1180.8" y="253.1" width="129.8" height="42.0" rx="12" fill="#FF9800" fill-opacity="0.12" stroke="#FF9800" stroke-opacity="0.5" stroke-width="1.5"/>
<text x="1245.7100849433275" y="274.06475574144724" fill="#374151" font-size="16" text-anchor="middle" dominant-baseline="central">闪拍App拍摄</text>
<rect x="1263.7" y="379.7" width="166.0" height="42.0" rx="12" fill="#FF9800" fill-opacity="0.12" stroke="#FF9800" stroke-opacity="0.5" stroke-width="1.5"/>
<text x="1346.6655536602934" y="400.6589093826707" fill="#374151" font-size="16" text-anchor="middle" dominant-baseline="central">照片·视频·语音</text>
<rect x="1176.5" y="665.8" width="132.0" height="52.0" rx="15" fill="#E6A817"/>
<text x="1242.478373654547" y="691.7562801868944" fill="#FFFFFF" font-size="22" font-weight="bold" text-anchor="middle" dominant-baseline="central">② 素材</text>
<rect x="1323.3" y="639.8" width="160.2" height="42.0" rx="12" fill="#E6A817" fill-opacity="0.12" stroke="#E6A817" stroke-opacity="0.5" stroke-width="1.5"/>
<text x="1403.4039421229375" y="660.7891780763413" fill="#374151" font-size="16" text-anchor="middle" dominant-baseline="central">SNAPSHOT素材库</text>
<rect x="1310.3" y="789.1" width="118.0" height="42.0" rx="12" fill="#E6A817" fill-opacity="0.12" stroke="#E6A817" stroke-opacity="0.5" stroke-width="1.5"/>
<text x="1369.3315367155467" y="810.070139989622" fill="#374151" font-size="16" text-anchor="middle" dominant-baseline="central">相册式聚合</text>
<rect x="1005.0" y="869.3" width="150.3" height="52.0" rx="15" fill="#66BB6A"/>
<text x="1080.1651217352676" y="895.2906603707257" fill="#FFFFFF" font-size="22" font-weight="bold" text-anchor="middle" dominant-baseline="central">③ AI生成</text>
<rect x="1139.4" y="973.3" width="161.8" height="42.0" rx="12" fill="#66BB6A" fill-opacity="0.12" stroke="#66BB6A" stroke-opacity="0.5" stroke-width="1.5"/>
<text x="1220.2803699218148" y="994.3021527623785" fill="#374151" font-size="16" text-anchor="middle" dominant-baseline="central">AI日记·5种风格</text>
<rect x="989.8" y="1047.6" width="152.6" height="42.0" rx="12" fill="#66BB6A" fill-opacity="0.12" stroke="#66BB6A" stroke-opacity="0.5" stroke-width="1.5"/>
<text x="1066.0344997369205" y="1068.5830488993045" fill="#374151" font-size="16" text-anchor="middle" dominant-baseline="central">AI游记·章节式</text>
<rect x="753.8" y="869.3" width="132.0" height="52.0" rx="15" fill="#26A69A"/>
<text x="819.8348782647327" y="895.2906603707257" fill="#FFFFFF" font-size="22" font-weight="bold" text-anchor="middle" dominant-baseline="central">④ 发布</text>
<rect x="768.8" y="1048.5" width="134.0" height="42.0" rx="12" fill="#26A69A" fill-opacity="0.12" stroke="#26A69A" stroke-opacity="0.5" stroke-width="1.5"/>
<text x="835.8395155083167" y="1069.4855270766689" fill="#374151" font-size="16" text-anchor="middle" dominant-baseline="central">三级内容链条</text>
<rect x="605.1" y="977.3" width="166.0" height="42.0" rx="12" fill="#26A69A" fill-opacity="0.12" stroke="#26A69A" stroke-opacity="0.5" stroke-width="1.5"/>
<text x="688.08062117232" y="998.3285938613893" fill="#374151" font-size="16" text-anchor="middle" dominant-baseline="central">草稿·私密·公开</text>
<rect x="591.5" y="665.8" width="132.0" height="52.0" rx="15" fill="#42A5F5"/>
<text x="657.5216263454529" y="691.7562801868942" fill="#FFFFFF" font-size="22" font-weight="bold" text-anchor="middle" dominant-baseline="central">⑤ 互动</text>
<rect x="446.1" y="782.1" width="166.0" height="42.0" rx="12" fill="#42A5F5" fill-opacity="0.12" stroke="#42A5F5" stroke-opacity="0.5" stroke-width="1.5"/>
<text x="529.066312559968" y="803.0506590219127" fill="#374151" font-size="16" text-anchor="middle" dominant-baseline="central">社群·消息·推荐</text>
<rect x="418.3" y="616.4" width="145.8" height="42.0" rx="12" fill="#42A5F5" fill-opacity="0.12" stroke="#42A5F5" stroke-opacity="0.5" stroke-width="1.5"/>
<text x="491.2555554621111" y="637.3909081839771" fill="#374151" font-size="16" text-anchor="middle" dominant-baseline="central">通知·SSE推送</text>
<rect x="649.5" y="412.0" width="132.0" height="52.0" rx="15" fill="#AB47BC"/>
<text x="715.450555259591" y="437.95305944238" fill="#FFFFFF" font-size="22" font-weight="bold" text-anchor="middle" dominant-baseline="central">⑥ 治理</text>
<rect x="474.0" y="375.0" width="166.0" height="42.0" rx="12" fill="#AB47BC" fill-opacity="0.12" stroke="#AB47BC" stroke-opacity="0.5" stroke-width="1.5"/>
<text x="557.0255059667102" y="396.03046700645996" fill="#374151" font-size="16" text-anchor="middle" dominant-baseline="central">审核·举报·删除</text>
<rect x="595.3" y="253.1" width="118.0" height="42.0" rx="12" fill="#AB47BC" fill-opacity="0.12" stroke="#AB47BC" stroke-opacity="0.5" stroke-width="1.5"/>
<text x="654.2899150566726" y="274.0647557414473" fill="#374151" font-size="16" text-anchor="middle" dominant-baseline="central">三角色权限</text>
</svg>